#N canvas 35 -5 1668 889 12;
#X obj -536 -50 loadbanger;
#X obj 399 -467 bng 15 250 50 0 empty empty empty 0 -6 0 8 -262144 -1 -1;
#X obj 399 -358 s RigBlockAdded;
#X obj -323 -390 s \$0-gain;
#X obj -323 -463 fparam gain;
#X obj 399 -502 fparam RigBlockAdded;
#X obj -1780 -101 bng 15 250 50 0 empty empty empty 0 -6 0 8 -262144 -1 -1;
#X msg 207 18 snare \$1;
#X msg 207 44 hh \$1;
#X obj 207 -54 tgl 15 0 empty empty empty 0 -6 0 8 -262144 -1 -1 0 1;
#X obj 285 19 tgl 15 0 empty empty empty 0 -6 0 8 -262144 -1 -1 0 1;
#X obj 280 44 tgl 15 0 empty empty empty 0 -6 0 8 -262144 -1 -1 1 1;
#X text 242 -56 big beat mute;
#X obj 1647 105 bng 15 250 50 0 empty empty empty 0 -6 0 8 -262144 -1 -1;
#X msg 207 70 newseed \$1;
#X obj 319 90 bng 15 250 50 0 empty empty empty 0 -6 0 8 -262144 -1 -1;
#X msg 207 -34 mute \$1;
#X obj 207 95 r \$0-gain;
#X msg -307 -413 1;
#X msg 207 -8 bass \$1;
#X obj 279 -9 tgl 15 0 empty empty empty 0 -6 0 8 -262144 -1 -1 1 1;
#X msg 235 201 swing \$1;
#X msg 235 176 0 0;
#X obj 235 151 r loadbang;
#X obj 319 65 loadbang;
#X obj 388 65 r newseed;
#X obj -133 -427 bng 15 250 50 0 empty empty empty 0 -6 0 8 -262144 -1 -1;
#X obj 262 -472 tgl 15 0 empty empty empty 0 -6 0 8 -262144 -1 -1 0 1;
#X obj 262 -499 fparam ModeSet;
#X obj -108 -460 fparam BlockSwatchSelect;
#X obj -114 -495 fparam BlockPaintTheme;
#X obj -133 -524 fparam SkinPaintTheme;
#X obj 106 -494 fparam ColorPicked;
#X obj 106 -465 bng 15 250 50 0 empty empty empty 0 -6 0 8 -262144 -1 -1;
#X obj 262 -404 s mode;
#X obj 365 98 r mode;
#X obj 106 -403 s ColorPicked;
#X msg -232 -410 0;
#N canvas 94 125 733 597 blues_progression 0;
#X msg -287 343 0;
#X msg -178 341 7;
#X obj -290 155 counter 12;
#X floatatom -290 179 5 0 0 0 - - -;
#X text -282 28 blues progression;
#X obj -287 273 sel 1 5 7 9 10 11;
#X obj -289 54 r \$0-b1;
#X floatatom -289 81 5 0 0 0 - - -;
#X obj -290 132 bng 15 250 50 0 empty empty empty 0 -6 0 8 -262144 -1 -1;
#X obj -286 376 bng 15 250 50 0 empty empty empty 0 -6 0 8 -262144 -1 -1;
#X obj -218 373 bng 15 250 50 0 empty empty empty 0 -6 0 8 -262144 -1 -1;
#X obj -184 376 bng 15 250 50 0 empty empty empty 0 -6 0 8 -262144 -1 -1;
#X obj -390 296 s newseed;
#X obj -390 243 counter 2;
#X obj -390 269 sel 1;
#X obj -290 103 sel 1 9;
#X msg -215 340 5;
#X obj -336 272 bng 15 250 50 0 empty empty empty 0 -6 0 8 -262144 -1 -1;
#X obj -261 421 s chordchange;
#X obj -133 333 s soloriff;
#X obj -164 376 s \$0-transpose;
#X obj -19 358 tempopen 3000;
#X obj -408 372 s soloriffoff;
#X connect 0 0 9 0;
#X connect 0 0 20 0;
#X connect 1 0 11 0;
#X connect 1 0 20 0;
#X connect 2 0 3 0;
#X connect 3 0 5 0;
#X connect 5 0 0 0;
#X connect 5 0 13 0;
#X connect 5 0 22 0;
#X connect 5 1 16 0;
#X connect 5 2 0 0;
#X connect 5 3 1 0;
#X connect 5 4 16 0;
#X connect 5 5 0 0;
#X connect 5 5 19 0;
#X connect 6 0 7 0;
#X connect 7 0 15 0;
#X connect 8 0 2 0;
#X connect 9 0 18 0;
#X connect 10 0 18 0;
#X connect 11 0 18 0;
#X connect 13 0 14 0;
#X connect 14 0 12 0;
#X connect 15 0 8 0;
#X connect 15 1 8 0;
#X connect 16 0 10 0;
#X connect 16 0 20 0;
#X connect 17 0 12 0;
#X restore -535 14 pd blues_progression;
#N canvas 0 0 671 765 globalclock 0;
#X obj -432 -351 tgl 15 0 empty empty empty 0 -6 0 8 -262144 -1 -1 1 1;
#X msg -177 -90 restart;
#X obj -318 38 sel 1;
#X floatatom -269 -6 5 0 0 0 - - -;
#X obj -157 -155 bng 15 250 50 0 empty empty empty 0 -6 0 8 -262144 -1 -1;
#X obj -131 -244 bng 15 250 50 0 empty empty empty 0 -6 0 8 -262144 -1 -1;
#X obj -52 -128 s \$0-mode;
#X obj -182 -191 t b b b;
#X obj -318 64 s \$0-restart;
#X obj -269 38 s \$0-b1;
#X obj -157 -128 s \$0-newseed;
#X obj -408 -20 bng 15 250 50 0 empty empty empty 0 -6 0 8 -262144 -1 -1;
#X obj -182 -217 onebang;
#X msg -408 -77 1;
#X obj -408 -102 r load4;
#X obj -318 16 bng 15 250 50 0 empty empty empty 0 -6 0 8 -262144 -1 -1;
#X msg -432 -379 1;
#X msg -52 -155 5;
#X msg -269 -92 range 1 32;
#X obj -269 -121 loadbang;
#X obj -131 -275 r mode;
#X obj -436 -416 del 4000;
#X obj -408 -51 clockreceiver6 civaccess;
#X obj -432 -323 clocks7 civaccess;
#X msg -332 -374 90;
#X obj -52 -210 loadbang;
#X obj -440 -452 loadbang;
#X connect 0 0 23 0;
#X connect 1 0 22 1;
#X connect 2 0 8 0;
#X connect 3 0 9 0;
#X connect 3 0 2 0;
#X connect 4 0 10 0;
#X connect 5 0 12 1;
#X connect 7 1 4 0;
#X connect 7 2 1 0;
#X connect 11 0 12 0;
#X connect 12 0 7 0;
#X connect 13 0 22 0;
#X connect 14 0 13 0;
#X connect 15 0 2 0;
#X connect 16 0 0 0;
#X connect 17 0 6 0;
#X connect 18 0 22 1;
#X connect 19 0 18 0;
#X connect 20 0 5 0;
#X connect 21 0 16 0;
#X connect 22 0 11 0;
#X connect 22 1 3 0;
#X connect 24 0 23 1;
#X connect 25 0 4 0;
#X connect 25 0 17 0;
#X connect 26 0 24 0;
#X connect 26 0 21 0;
#X restore -536 -17 pd globalclock;
#N canvas 238 16 1342 928 melody_instrument 0;
#X floatatom -83 457 5 0 0 0 - - -;
#X obj 5 462 loadbang;
#X msg -42 514 80;
#X obj -608 161 bluesriffs;
#X obj -558 112 r \$0-b1;
#X obj -558 137 - 1;
#X obj -518 62 bng 15 250 50 0 empty empty empty 0 -6 0 8 -262144 -1 -1;
#X msg 217 522 pan \$1;
#X floatatom 217 501 5 0 0 0 - - -;
#X text -496 614 make more quite if up an octave;
#X msg 1 516 2000;
#X obj -83 484 t f f;
#X obj -608 135 bng 15 250 50 0 empty empty empty 0 -6 0 8 -262144 -1 -1;
#X obj -449 250 bluesriffs;
#X obj -402 193 r \$0-b1;
#X obj -399 222 - 1;
#X obj -468 203 bng 15 250 50 0 empty empty empty 0 -6 0 8 -262144 -1 -1;
#X obj -282 44 bng 15 250 50 0 empty empty empty 0 -6 0 8 -262144 -1 -1;
#X obj -282 13 clockreceiver6 civaccess;
#X obj -378 -218 coll 8 2;
#C list 0 1 3;
#C list 1 1 1;
#C list 2 3 1;
#C list 3 1 4;
#C list 4 1 5;
#C list 5 2 1;
#C list 6 1 4;
#C list 7 1 2;
#X obj -381 -182 unpack 0 0;
#X obj -374 -246 random 8;
#X obj -374 -333 bng 15 250 50 0 empty empty empty 0 -6 0 8 -262144 -1 -1;
#X obj -583 -86 r \$0-b1;
#X floatatom -583 -61 5 0 0 0 - - -;
#X floatatom -591 476 5 0 0 0 - - -;
#X obj -503 467 loadbang;
#X msg -541 520 80;
#X msg -288 462 pan \$1;
#X msg -503 520 2000;
#X floatatom -514 440 5 0 0 0 - - -;
#X obj -591 497 t f f;
#X msg 212 474 60;
#X msg -288 437 330;
#X obj -608 74 r newseed;
#X obj -147 -320 r \$0-b1;
#X floatatom -147 -295 5 0 0 0 - - -;
#X obj -167 -221 gate;
#X obj -147 -272 sel 1 17;
#X msg -202 -284 0;
#X msg -273 -221 1;
#X floatatom -282 -57 5 0 0 0 - - -;
#X obj -374 -358 bng 15 250 50 0 empty empty empty 0 -6 0 8 -262144 -1 -1;
#X obj -374 -390 r solo;
#X obj -134 -68 coll 9 2;
#C list 0 3 4;
#C list 1 4 3;
#C list 2 3 5;
#C list 3 6 4;
#C list 4 4 5;
#C list 5 6 7;
#C list 6 3 2;
#C list 7 3 3;
#C list 8 4 6;
#X obj -134 -94 random 9;
#X msg -121 -191 1;
#X obj -134 -145 change;
#X obj -134 -119 sel 1;
#X floatatom -518 -69 5 0 0 0 - - -;
#X obj -185 -182 bng 15 250 50 0 empty empty empty 0 -6 0 8 -262144 -1 -1;
#X obj -518 31 clockreceiver6 civaccess;
#X msg -289 509 gain \$1;
#X msg 198 594 gain \$1;
#X obj -295 -252 del 1000;
#X obj -583 -8 sel 1;
#X obj -583 19 bng 15 250 50 0 empty empty empty 0 -6 0 8 -262144 -1 -1;
#X obj -207 147 bng 15 250 50 0 empty empty empty 0 -6 0 8 -262144 -1 -1;
#X obj -207 116 clockreceiver6 civaccess;
#X obj -315 210 gate;
#X obj -298 91 random 100;
#X msg -301 154 1;
#X msg -256 204 0;
#X obj -162 211 bng 15 250 50 0 empty empty empty 0 -6 0 8 -262144 -1 -1;
#X obj -162 180 clockreceiver6 civaccess;
#X obj -162 258 bng 15 250 50 0 empty empty empty 0 -6 0 8 -262144 -1 -1;
#X obj -162 232 del 30;
#X obj -270 63 gate;
#X msg -220 29 1;
#X obj -307 121 moses 70;
#X msg -184 32 0;
#X obj -137 60 loadbang;
#X obj -318 239 bng 15 250 50 0 empty empty empty 0 -6 0 8 -262144 -1 -1;
#X obj -583 -37 % 8;
#X obj -439 -246 bng 15 250 50 0 empty empty empty 0 -6 0 8 -262144 -1 -1;
#X obj -548 -305 r \$0-b1;
#X floatatom -548 -280 5 0 0 0 - - -;
#X obj -546 -252 % 16;
#X obj -544 -202 sel 1;
#X obj -591 450 gate;
#X obj -83 433 gate;
#X msg -162 155 5;
#X obj -824 309 random 2;
#X floatatom -824 336 5 0 0 0 - - -;
#X obj -286 -29 + 2;
#X obj -517 -15 + 2;
#X obj -591 547 noteobject modem setnext 3;
#X obj -591 521 + 12;
#X obj -83 541 noteobject modem setnext 3;
#X obj -83 514 + 0;
#X msg -137 86 1;
#X msg -288 486 0.2;
#X obj -232 270 t f f;
#X obj -216 389 + 0;
#X obj -197 322 sel 1 0;
#X msg -197 357 -12;
#X obj -693 190 t f f;
#X obj -677 338 + 0;
#X obj -658 242 sel 1 0;
#X msg -633 270 0;
#X msg -658 295 -12;
#X obj -658 216 > 40;
#X obj -197 296 > 45;
#X obj -39 343 r solo;
#X obj -564 330 r solo;
#X obj -554 354 r mute;
#X msg 316 357 0.511811 1 0 1042.84 0.28063;
#X obj 316 426 delay_controller_patch;
#X obj 316 390 unpack 0 0 0 0 0;
#X obj 316 326 loadbang;
#X msg -913 517 0.346457 714.241 0.233858 1 0;
#X obj -908 591 delay_controller_patch;
#X obj -899 559 unpack 0 0 0 0 0;
#X obj -913 486 loadbang;
#X obj -564 379 bng 15 250 50 0 empty empty empty 0 -6 0 8 -262144 -1 -1;
#X obj -824 197 r ColorPicked;
#X obj -55 319 r mute;
#X obj -854 255 del 1000;
#X obj -817 363 sel 0 1;
#X msg -817 391 1;
#X msg -782 390 1;
#X msg -855 401 0;
#X obj -824 227 bng 15 250 50 0 empty empty empty 0 -6 0 8 -262144 -1 -1;
#X obj -564 397 tempopen 2000;
#X floatatom -564 421 5 0 0 0 - - -;
#X obj -55 370 bng 15 250 50 0 empty empty empty 0 -6 0 8 -262144 -1 -1;
#X obj -55 388 tempopen 2000;
#X floatatom -55 412 5 0 0 0 - - -;
#X obj -448 325 r BlockPaintApply;
#X obj -448 353 tempopen 1000;
#X obj -449 277 + 12;
#X msg -161 357 0;
#X msg 198 569 0.15;
#X connect 0 0 11 0;
#X connect 1 0 10 0;
#X connect 1 0 2 0;
#X connect 1 0 32 0;
#X connect 1 0 132 0;
#X connect 2 0 88 1;
#X connect 3 0 96 0;
#X connect 4 0 5 0;
#X connect 5 0 3 2;
#X connect 6 0 3 3;
#X connect 7 0 88 4;
#X connect 8 0 7 0;
#X connect 10 0 88 2;
#X connect 11 0 89 0;
#X connect 12 0 3 0;
#X connect 13 0 130 0;
#X connect 14 0 15 0;
#X connect 15 0 13 2;
#X connect 16 0 13 0;
#X connect 17 0 13 3;
#X connect 17 0 67 0;
#X connect 18 0 17 0;
#X connect 19 0 20 0;
#X connect 20 0 49 0;
#X connect 20 1 41 0;
#X connect 21 0 19 0;
#X connect 22 0 21 0;
#X connect 22 0 39 0;
#X connect 22 0 54 0;
#X connect 22 0 68 0;
#X connect 23 0 24 0;
#X connect 24 0 73 0;
#X connect 25 0 31 0;
#X connect 26 0 29 0;
#X connect 26 0 27 0;
#X connect 26 0 33 0;
#X connect 26 0 91 0;
#X connect 27 0 86 1;
#X connect 28 0 86 4;
#X connect 29 0 86 2;
#X connect 30 0 86 0;
#X connect 31 0 87 0;
#X connect 32 0 7 0;
#X connect 33 0 28 0;
#X connect 34 0 12 0;
#X connect 34 0 16 0;
#X connect 35 0 36 0;
#X connect 36 0 38 0;
#X connect 37 0 46 0;
#X connect 37 0 50 0;
#X connect 38 0 37 0;
#X connect 38 1 37 0;
#X connect 39 0 37 1;
#X connect 39 0 47 0;
#X connect 40 0 37 1;
#X connect 41 0 84 0;
#X connect 42 0 22 0;
#X connect 43 0 42 0;
#X connect 44 0 49 0;
#X connect 44 1 41 0;
#X connect 45 0 44 0;
#X connect 46 0 47 0;
#X connect 47 0 48 0;
#X connect 48 0 45 0;
#X connect 49 0 85 0;
#X connect 51 0 6 0;
#X connect 52 0 86 4;
#X connect 53 0 88 4;
#X connect 54 0 40 0;
#X connect 54 0 70 0;
#X connect 55 0 56 0;
#X connect 56 0 3 1;
#X connect 56 0 13 1;
#X connect 57 0 59 0;
#X connect 58 0 57 0;
#X connect 59 0 13 3;
#X connect 59 0 72 0;
#X connect 60 0 69 0;
#X connect 61 0 59 1;
#X connect 62 0 59 1;
#X connect 63 0 66 0;
#X connect 64 0 63 0;
#X connect 65 0 62 0;
#X connect 66 0 65 0;
#X connect 67 0 60 0;
#X connect 68 0 67 1;
#X connect 69 0 61 0;
#X connect 70 0 67 1;
#X connect 71 0 90 0;
#X connect 71 0 81 0;
#X connect 73 0 55 0;
#X connect 74 0 21 0;
#X connect 75 0 76 0;
#X connect 76 0 77 0;
#X connect 77 0 78 0;
#X connect 78 0 74 0;
#X connect 79 0 25 0;
#X connect 80 0 0 0;
#X connect 81 0 64 0;
#X connect 82 0 83 0;
#X connect 83 0 118 0;
#X connect 84 0 18 0;
#X connect 85 0 51 0;
#X connect 87 0 86 0;
#X connect 89 0 88 0;
#X connect 90 0 58 0;
#X connect 91 0 52 0;
#X connect 92 0 93 0;
#X connect 92 1 102 0;
#X connect 93 0 80 0;
#X connect 94 0 95 0;
#X connect 94 1 131 0;
#X connect 95 0 93 1;
#X connect 96 0 97 0;
#X connect 96 1 101 0;
#X connect 97 0 79 0;
#X connect 98 0 100 0;
#X connect 98 1 99 0;
#X connect 99 0 97 1;
#X connect 100 0 97 1;
#X connect 101 0 98 0;
#X connect 102 0 94 0;
#X connect 103 0 125 0;
#X connect 104 0 114 0;
#X connect 105 0 114 0;
#X connect 106 0 108 0;
#X connect 107 0 88 4;
#X connect 108 0 107 0;
#X connect 108 1 107 1;
#X connect 108 2 107 2;
#X connect 108 3 107 3;
#X connect 108 4 107 4;
#X connect 109 0 106 0;
#X connect 110 0 112 0;
#X connect 111 0 86 4;
#X connect 112 0 111 0;
#X connect 112 1 111 1;
#X connect 112 2 111 2;
#X connect 112 3 111 3;
#X connect 112 4 111 4;
#X connect 113 0 110 0;
#X connect 114 0 123 0;
#X connect 115 0 122 0;
#X connect 116 0 125 0;
#X connect 117 0 121 0;
#X connect 118 0 119 0;
#X connect 118 1 120 0;
#X connect 119 0 79 1;
#X connect 120 0 80 1;
#X connect 121 0 79 1;
#X connect 121 0 80 1;
#X connect 122 0 117 0;
#X connect 122 0 82 0;
#X connect 123 0 124 0;
#X connect 124 0 79 1;
#X connect 125 0 126 0;
#X connect 126 0 127 0;
#X connect 127 0 80 1;
#X connect 128 0 129 0;
#X connect 129 0 79 1;
#X connect 129 0 80 1;
#X connect 130 0 92 0;
#X connect 131 0 93 1;
#X connect 132 0 53 0;
#X restore -535 42 pd melody_instrument;
#N canvas 105 9 1543 981 bassline 0;
#X obj -535 537 r \$0-transpose;
#X obj -447 412 r \$0-mode;
#X obj -483 387 r \$0-restart;
#X obj -519 359 r \$0-newseed;
#X obj -117 860 r \$0-gain;
#X msg -117 913 gain \$1;
#X obj -437 436 r \$0-b1;
#X floatatom -554 492 5 0 0 0 - - -;
#X obj -554 565 + 0;
#X floatatom -554 632 5 0 0 0 - - -;
#X obj -375 492 s \$0-bassnotes;
#X obj -375 180 bng 15 250 50 0 empty empty empty 0 -6 0 8 -262144 -1 -1;
#X obj -375 155 r bassdrumhit;
#X obj -375 204 random 100;
#X obj -375 265 bng 15 250 50 0 empty empty empty 0 -6 0 8 -262144 -1 -1;
#X obj -276 261 bng 15 250 50 0 empty empty empty 0 -6 0 8 -262144 -1 -1;
#X msg -240 169 seed \$1;
#X obj -221 65 random 365657;
#X obj -240 -30 r \$0-restart;
#X obj -554 464 chanceplayer-bass-tribe;
#X obj -210 91 r \$0-restart;
#X obj -240 141 f 0;
#X obj -221 43 bng 15 250 50 0 empty empty empty 0 -6 0 8 -262144 -1 -1;
#X obj -221 18 r loadbang;
#X obj -231 -6 r newseed;
#X obj -640 36 r load4;
#X obj -442 161 gate;
#X obj -332 33 sel 0;
#X obj -621 11 r comebackin;
#X obj -415 134 f;
#X obj -415 107 r comebackin;
#X msg -478 57 restart;
#X obj -478 32 r \$0-restart;
#X obj -442 186 bng 15 250 50 0 empty empty empty 0 -6 0 8 -262144 -1 -1;
#X obj -375 320 bng 15 250 50 0 empty empty empty 0 -6 0 8 -262144 -1 -1;
#X obj -375 290 eventfilter 200;
#X msg -641 61 3;
#X obj -332 7 random 3;
#X msg -332 59 0;
#X msg -290 83 1;
#X obj -291 61 bng 15 250 50 0 empty empty empty 0 -6 0 8 -262144 -1 -1;
#X obj -332 -18 r soloriff;
#X obj -511 -14 bng 15 250 50 0 empty empty empty 0 -6 0 8 -262144 -1 -1;
#X obj -357 -22 bng 15 250 50 0 empty empty empty 0 -6 0 8 -262144 -1 -1;
#X obj -511 32 + 1;
#X obj -511 5 random 3;
#X obj -357 -48 r chordchange;
#X text -524 -62 For walking chance;
#X obj -210 115 bng 15 250 50 0 empty empty empty 0 -6 0 8 -262144 -1 -1;
#X obj -539 783 r \$0-gain;
#X msg -539 837 gain \$1;
#X msg -441 762 1;
#X obj 90 1026 bng 15 250 50 0 empty empty empty 0 -6 0 8 -262144 -1 -1;
#X obj -262 845 loadbang;
#X obj -640 87 clockreceiver6 civaccess;
#X obj -375 233 moses 80;
#X obj -467 211 random 100;
#X obj -467 237 moses 40;
#X obj -467 262 bng 15 250 50 0 empty empty empty 0 -6 0 8 -262144 -1 -1;
#X msg -262 910 70;
#X floatatom -311 825 5 0 0 0 - - -;
#X obj -72 547 r \$0-mode;
#X obj -108 522 r \$0-restart;
#X obj -144 494 r \$0-newseed;
#X obj -62 571 r \$0-b1;
#X obj -179 599 chanceplayer-bass-tribe;
#X floatatom -423 494 5 0 0 0 - - -;
#X floatatom -3 630 5 0 0 0 - - -;
#X floatatom -179 630 5 0 0 0 - - -;
#X obj -160 681 r \$0-transpose;
#X obj -179 709 + 0;
#X obj 11 466 clockreceiver6 civaccess;
#X obj 11 497 bng 15 250 50 0 empty empty empty 0 -6 0 8 -262144 -1 -1;
#X obj 11 517 del 5;
#X obj -309 757 gate 1 1;
#X msg 11 442 2;
#X obj -375 372 gate 1 1;
#X obj -244 357 del 2000;
#X obj -244 330 r solo;
#X msg -244 383 1;
#X msg -293 357 0;
#X obj 10 554 gate 1 1;
#X obj 163 547 del 2000;
#X obj 163 520 r solo;
#X msg 151 589 1;
#X msg 92 539 0;
#X msg -735 813 70;
#X obj -734 786 loadbang;
#X obj -191 330 r mute;
#X obj 227 460 r mute;
#X obj 250 532 del 6000;
#X obj -711 714 gate 1 1;
#X obj -652 659 r mode;
#X obj -652 686 != 1;
#X obj -43 687 r BlockPaintApply;
#X obj -495 585 r BlockPaintApply;
#X obj -495 609 bng 15 250 50 0 empty empty empty 0 -6 0 8 -262144 -1 -1;
#X obj -554 656 gate 1 1;
#X obj -179 657 + 12;
#X obj -311 849 t f b;
#X obj -211 912 + 5;
#X obj -239 875 random 200;
#X msg -685 822 100;
#X obj -783 799 + 0;
#X msg -620 852 pan \$1;
#X msg -97 829 pan \$1;
#X msg -97 801 100;
#X msg -620 826 300;
#X obj -539 811 * 0.8;
#X obj -311 942 noteobject soft 1;
#X obj -784 885 noteobject cpbassguitar 1;
#X obj -117 887 * 0.2;
#X obj -554 513 + 24;
#X obj 11 415 loadbang;
#X obj -311 790 + 12;
#X obj -97 772 loadbang;
#X obj -43 741 tempclose 3000;
#X obj -40 718 bng 15 250 50 0 empty empty empty 0 -6 0 8 -262144 -1 -1;
#X obj -554 687 t f b;
#X obj -314 720 tempclose 100;
#X obj -495 629 tempclose 3000;
#X msg -143 942 hipass 400;
#X connect 0 0 8 1;
#X connect 1 0 19 3;
#X connect 2 0 19 2;
#X connect 3 0 19 1;
#X connect 4 0 111 0;
#X connect 5 0 109 4;
#X connect 6 0 19 4;
#X connect 7 0 112 0;
#X connect 8 0 9 0;
#X connect 9 0 91 0;
#X connect 9 0 97 0;
#X connect 11 0 13 0;
#X connect 12 0 11 0;
#X connect 13 0 55 0;
#X connect 14 0 35 0;
#X connect 16 0 13 0;
#X connect 17 0 21 0;
#X connect 18 0 21 0;
#X connect 19 0 7 0;
#X connect 19 1 10 0;
#X connect 19 1 66 0;
#X connect 20 0 48 0;
#X connect 21 0 16 0;
#X connect 22 0 17 0;
#X connect 23 0 22 0;
#X connect 24 0 22 0;
#X connect 25 0 36 0;
#X connect 26 0 33 0;
#X connect 27 0 38 0;
#X connect 27 1 40 0;
#X connect 28 0 36 0;
#X connect 29 0 26 1;
#X connect 30 0 29 0;
#X connect 31 0 54 1;
#X connect 32 0 31 0;
#X connect 33 0 56 0;
#X connect 34 0 76 0;
#X connect 35 0 34 0;
#X connect 36 0 54 0;
#X connect 37 0 27 0;
#X connect 38 0 29 0;
#X connect 39 0 29 0;
#X connect 40 0 39 0;
#X connect 40 0 42 0;
#X connect 41 0 37 0;
#X connect 42 0 45 0;
#X connect 43 0 37 0;
#X connect 44 0 54 0;
#X connect 45 0 44 0;
#X connect 46 0 43 0;
#X connect 48 0 21 0;
#X connect 49 0 108 0;
#X connect 50 0 110 4;
#X connect 51 0 108 0;
#X connect 51 0 111 0;
#X connect 53 0 59 0;
#X connect 53 0 121 0;
#X connect 54 1 26 0;
#X connect 55 0 14 0;
#X connect 56 0 57 0;
#X connect 57 0 58 0;
#X connect 58 0 14 0;
#X connect 59 0 109 1;
#X connect 60 0 99 0;
#X connect 61 0 65 3;
#X connect 62 0 65 2;
#X connect 63 0 65 1;
#X connect 64 0 65 4;
#X connect 65 0 68 0;
#X connect 65 1 67 0;
#X connect 68 0 98 0;
#X connect 69 0 70 1;
#X connect 70 0 74 0;
#X connect 71 0 72 0;
#X connect 72 0 73 0;
#X connect 73 0 81 0;
#X connect 74 0 114 0;
#X connect 75 0 71 0;
#X connect 76 0 19 5;
#X connect 77 0 79 0;
#X connect 78 0 77 0;
#X connect 78 0 80 0;
#X connect 79 0 76 1;
#X connect 80 0 76 1;
#X connect 81 0 65 5;
#X connect 82 0 84 0;
#X connect 83 0 82 0;
#X connect 83 0 85 0;
#X connect 84 0 81 1;
#X connect 85 0 81 1;
#X connect 86 0 110 1;
#X connect 87 0 86 0;
#X connect 87 0 102 0;
#X connect 87 0 107 0;
#X connect 88 0 80 0;
#X connect 88 0 77 0;
#X connect 89 0 85 0;
#X connect 89 0 90 0;
#X connect 90 0 84 0;
#X connect 91 0 103 0;
#X connect 92 0 93 0;
#X connect 93 0 91 1;
#X connect 94 0 117 0;
#X connect 95 0 96 0;
#X connect 96 0 120 0;
#X connect 97 0 118 0;
#X connect 98 0 70 0;
#X connect 99 0 109 0;
#X connect 99 1 101 0;
#X connect 100 0 109 2;
#X connect 101 0 100 0;
#X connect 102 0 110 2;
#X connect 103 0 110 0;
#X connect 104 0 110 4;
#X connect 105 0 109 4;
#X connect 106 0 105 0;
#X connect 107 0 104 0;
#X connect 108 0 50 0;
#X connect 111 0 5 0;
#X connect 112 0 8 0;
#X connect 113 0 75 0;
#X connect 114 0 60 0;
#X connect 115 0 106 0;
#X connect 116 0 74 1;
#X connect 117 0 116 0;
#X connect 118 0 114 0;
#X connect 118 1 119 0;
#X connect 119 0 74 1;
#X connect 120 0 97 1;
#X connect 121 0 109 4;
#X restore -535 70 pd bassline;
#X obj -516 -433 s PalleteSetTest;
#X obj -516 -456 bng 15 250 50 0 empty empty empty 0 -6 0 8 -262144 -1 -1;
#X obj -516 -485 fparam PaletteSet;
#X obj 365 124 bng 15 250 50 0 empty empty empty 0 -6 0 8 -262144 -1 -1;
#X obj 365 145 del 2000;
#X obj -133 -403 s BlockPaintApply;
#X obj 376 -124 r solo;
#X obj 433 -384 s solo;
#X obj 433 -408 bng 15 250 50 0 empty empty empty 0 -6 0 8 -262144 -1 -1;
#X msg 300 -89 solo 1;
#X obj -543 -408 s mute;
#X obj 207 -234 r mute;
#X obj 207 -205 bng 15 250 50 0 empty empty empty 0 -6 0 8 -262144 -1 -1;
#X msg 207 -113 0;
#X obj 292 -158 del 2000;
#X text 287 -474 Build = 0;
#X text 286 -456 Paint = 1;
#X obj 320 -36 r mode;
#X obj 320 -10 != 1;
#X obj 534 -460 r mode;
#X obj 534 -435 sel 0;
#X obj 376 -178 r mode;
#X obj 376 -149 + 1;
#X obj 300 -115 gate 2 1;
#X msg 378 19 1;
#X obj 517 98 bng 15 250 50 0 empty empty empty 0 -6 0 8 -262144 -1 -1;
#X obj 517 67 clockreceiver6 civaccess;
#X obj 517 128 gate 1 0;
#X obj 576 100 r mode;
#X obj 534 -409 del 10;
#X obj 517 15 loadbang;
#X msg 517 41 4;
#X obj 17 -148 r BlockPaintApply;
#X obj 17 -122 bng 15 250 50 0 empty empty empty 0 -6 0 8 -262144 -1 -1;
#X obj -32 18 r ColorPicked;
#X obj -32 44 bng 15 250 50 0 empty empty empty 0 -6 0 8 -262144 -1 -1;
#X msg 81 66 solo 2;
#N canvas 1 10 1668 981 civaccessdrums 0;
#X msg 522 500 startselect \$1;
#X obj 557 105 bng 15 250 50 0 empty empty empty 0 -6 0 8 -262144 -1 -1;
#X obj 225 180 bng 15 250 50 0 empty empty empty 0 -6 0 8 -262144 -1 -1;
#X msg 852 280 startselect \$1;
#X obj 893 108 bng 15 250 50 0 empty empty empty 0 -6 0 8 -262144 -1 -1;
#X obj 175 -641 r \$0-b1;
#X obj 201 -91 coll 15 12;
#C list 0 94 0 0 0 0 0 0 0 0 0 0 0;
#C list 1 94 0 0 0 0 96 0 0 0 0 0 0;
#C list 2 94 0 93 0 92 0 91 0 88 0 94 0;
#C list 3 94 0 30 0 0 96 0 0 0 30 0 0;
#C list 4 94 0 0 0 0 96 0 0 0 0 0 0;
#C list 5 86 0 0 87 0 0 84 0 0 84 0 84;
#C list 6 94 0 0 0 0 0 0 0 0 0 70 0;
#C list 7 87 0 85 0 0 0 87 0 0 0 90 0;
#C list 8 94 0 0 0 0 0 0 0 0 97 0 99;
#C list 9 97 0 0 88 0 0 76 0 0 83 0 0;
#C list 10 86 0 86 0 87 0 88 0 88 0 90 0;
#C list 11 86 0 86 0 87 0 88 0 88 0 90 0;
#C list 12 86 0 86 0 87 0 88 0 88 0 90 0;
#C list 13 86 0 0 85 87 0 88 0 88 0 90 0;
#C list 14 86 0 84 0 88 90 85 0 84 0 88 88;
#N canvas 537 48 735 678 bassdrum 0;
#X obj -788 270 table 12;
#A setproperties 1 0 100 2 2184 1 200 100;
#A 0 86 0 0 85 87 0 88 0 88 0 90 0;
#X obj -795 498 list prepend;
#X obj -795 441 t l b;
#X obj -788 236 uzi 12;
#X obj -788 210 bng 15 250 50 0 empty empty empty 0 -6 0 8 -262144 -1 -1;
#X obj -795 412 list-group 12;
#X text -760 194 push here to store the 12 numbers in the table into the collection.;
#X text -652 471 change this to the desired index for the collection storage.;
#X obj -795 531 outlet to collection;
#X obj -533 383 counter 9;
#X obj -705 468 int;
#X obj -533 409 - 1;
#X floatatom -532 434 5 0 0 0 - - -;
#X obj -444 374 counter 5;
#X obj -432 420 + 9;
#X obj -532 288 gate 2;
#X msg -487 258 1;
#X msg -448 257 2;
#X text -413 256 solo;
#X obj -500 317 bng 15 250 50 0 empty empty empty 0 -6 0 8 -262144 -1 -1;
#X floatatom -439 451 5 0 0 0 - - -;
#X connect 0 0 5 0;
#X connect 1 0 8 0;
#X connect 2 0 1 0;
#X connect 2 1 10 0;
#X connect 3 0 0 0;
#X connect 4 0 3 0;
#X connect 4 0 9 0;
#X connect 4 0 15 0;
#X connect 5 0 2 0;
#X connect 9 0 11 0;
#X connect 10 0 1 1;
#X connect 11 0 10 1;
#X connect 11 0 12 0;
#X connect 13 0 14 0;
#X connect 14 0 20 0;
#X connect 15 0 9 0;
#X connect 15 1 13 0;
#X connect 16 0 15 1;
#X connect 17 0 15 1;
#X connect 19 0 13 2;
#X connect 19 0 9 2;
#X connect 20 0 10 1;
#X restore 219 -120 pd bassdrum building;
#X obj 236 -314 sel 0;
#X obj 315 -37 bng 15 250 50 0 empty empty empty 0 -6 0 8 -262144 -1 -1;
#X floatatom 201 -288 5 0 0 0 - - -;
#X floatatom 201 9 5 0 0 0 - - -;
#X obj 201 -176 list prepend;
#X msg 292 -203 nth \$1;
#X msg 201 -207 \$1;
#X obj 201 -265 t 1 b;
#X obj 292 -237 int 0;
#X obj 201 -147 route list;
#X obj 247 -286 bng 15 250 50 0 empty empty empty 0 -6 0 8 -262144 -1 -1;
#X obj 201 -347 t 1 1;
#X obj 523 -434 r \$0-b1;
#X obj 545 -81 coll 15 16;
#C list 0 0 0 0 0 0 0 0 0 0 0 0 93 0 0 0 1;
#C list 1 0 0 80 0 0 0 0 0 0 0 0 0 0 84 0 0;
#C list 2 0 0 92 0 0 0 90 0 0 0 0 0 93 0 0 0;
#C list 3 0 0 94 0 0 0 93 0 0 0 0 0 95 0 0 0;
#C list 4 0 0 0 91 0 0 0 0 0 0 0 0 0 91 0 0;
#C list 5 0 0 0 90 0 0 0 0 0 0 0 0 87 0 0 0;
#C list 6 0 0 91 0 0 0 0 0 0 0 0 0 0 94 0 0;
#C list 7 0 0 0 0 87 0 0 0 0 0 71 0 95 0 78 0;
#C list 8 0 0 90 0 0 0 0 0 0 0 93 0 0 0 0 1;
#C list 9 0 0 0 96 0 0 0 0 0 0 0 0 0 0 0 1;
#C list 10 90 0 0 0 0 0 0 0 0 79 0 0 0 0 0 0;
#C list 11 0 0 0 0 0 0 0 0 0 0 76 76 76 76 76 78;
#C list 12 0 0 0 0 0 0 0 0 0 0 0 0 76 76 76 78;
#C list 13 0 0 0 0 0 0 0 0 0 0 0 0 91 91 91 92;
#C list 14 0 0 0 0 0 0 0 0 0 0 96 0 0 94 94 95;
#X obj 558 -304 sel 0;
#X obj 652 -28 bng 15 250 50 0 empty empty empty 0 -6 0 8 -262144 -1 -1;
#X floatatom 523 -278 5 0 0 0 - - -;
#X floatatom 545 19 5 0 0 0 - - -;
#X obj 545 -166 list prepend;
#X msg 636 -193 nth \$1;
#X msg 545 -197 \$1;
#X obj 545 -255 t 1 b;
#X obj 636 -227 int 0;
#X obj 545 -137 route list;
#X obj 598 -265 bng 15 250 50 0 empty empty empty 0 -6 0 8 -262144 -1 -1;
#X obj 523 -337 t 1 1;
#X obj 327 -265 random 10;
#X obj 327 -285 bng 15 250 50 0 empty empty empty 0 -6 0 8 -262144 -1 -1;
#X obj 685 -294 random 10;
#X obj 685 -314 bng 15 250 50 0 empty empty empty 0 -6 0 8 -262144 -1 -1;
#N canvas 250 49 775 718 snaredrum 0;
#X obj -789 278 table 16;
#A setproperties 1 0 100 2 2184 1 200 100;
#A 0 0 0 0 0 0 0 0 0 0 0 96 0 0 94 94 95;
#X obj -795 498 list prepend;
#X obj -795 441 t l b;
#X obj -788 210 bng 15 250 50 0 empty empty empty 0 -6 0 8 -262144 -1 -1;
#X text -775 92 push here to store the 12 numbers in the table into the collection.;
#X text -652 471 change this to the desired index for the collection storage.;
#X obj -795 531 outlet to collection;
#X obj -706 463 int;
#X obj -544 395 - 1;
#X floatatom -543 420 5 0 0 0 - - -;
#X obj -444 374 counter 5;
#X obj -432 420 + 9;
#X obj -532 288 gate 2;
#X msg -487 258 1;
#X msg -448 257 2;
#X text -413 256 solo;
#X obj -500 317 bng 15 250 50 0 empty empty empty 0 -6 0 8 -262144 -1 -1;
#X obj -544 369 counter 10;
#X floatatom -439 451 5 0 0 0 - - -;
#X obj -462 306 bng 15 250 50 0 empty empty empty 0 -6 0 8 -262144 -1 -1;
#X obj -788 236 uzi 16;
#X obj -795 412 list-group 16;
#X connect 0 0 21 0;
#X connect 1 0 6 0;
#X connect 2 0 1 0;
#X connect 2 1 7 0;
#X connect 3 0 12 0;
#X connect 3 0 20 0;
#X connect 7 0 1 1;
#X connect 8 0 9 0;
#X connect 9 0 7 1;
#X connect 10 0 11 0;
#X connect 11 0 7 1;
#X connect 11 0 18 0;
#X connect 12 0 17 0;
#X connect 12 1 10 0;
#X connect 12 1 19 0;
#X connect 13 0 12 1;
#X connect 14 0 12 1;
#X connect 16 0 10 2;
#X connect 16 0 17 2;
#X connect 17 0 8 0;
#X connect 20 0 0 0;
#X connect 21 0 2 0;
#X restore 563 -110 pd snaredrum building;
#X obj 855 -396 r \$0-b1;
#X obj 855 -44 coll 10 12;
#C list 0 97 0 97 0 100 0 95 0 93 0 89 0;
#C list 1 97 0 0 0 100 0 0 0 93 0 0 0;
#C list 2 82 0 81 0 78 0 82 0 83 0 84 0;
#C list 3 82 77 76 76 76 76.3333 76.6667 77 78 80 80 81;
#C list 4 93 93 92 92 92 92 92 92 92 91 91 93;
#C list 5 74 74 74 76 76 76 76 76 76 76 76 76;
#C list 6 86 0 0 86 0 0 86 0 0 90 0 0;
#C list 7 0 95 0 96 0 96 0 97 0 92 0 95;
#C list 8 94 94 94 94 93 92.5 92 90 88.5 87 85.5 90;
#C list 9 0 100 0 100 0 100 0 100 0 0 0 0;
#X obj 890 -267 sel 0;
#X obj 969 10 bng 15 250 50 0 empty empty empty 0 -6 0 8 -262144 -1 -1;
#X floatatom 855 -241 5 0 0 0 - - -;
#X floatatom 855 57 5 0 0 0 - - -;
#X obj 855 -129 list prepend;
#X msg 946 -156 nth \$1;
#X msg 855 -160 \$1;
#X obj 855 -218 t 1 b;
#X obj 946 -190 int 0;
#X obj 855 -100 route list;
#X obj 912 -228 bng 15 250 50 0 empty empty empty 0 -6 0 8 -262144 -1 -1;
#X obj 855 -300 t 1 1;
#X obj 981 -218 random 10;
#X obj 981 -238 bng 15 250 50 0 empty empty empty 0 -6 0 8 -262144 -1 -1;
#X obj 517 -720 bng 15 250 50 0 empty empty empty 0 -6 0 8 -262144 -1 -1;
#X obj 175 -594 gate;
#X obj 202 -616 tgl 15 0 empty empty empty 0 -6 0 8 -262144 -1 -1 1 1;
#X obj 523 -390 gate;
#X obj 550 -411 tgl 15 0 empty empty empty 0 -6 0 8 -262144 -1 -1 0 1;
#X obj 855 -350 gate;
#X obj 882 -371 tgl 15 0 empty empty empty 0 -6 0 8 -262144 -1 -1 1 1;
#X obj 372 -859 inlet fast on/off;
#X obj 679 -496 tgl 15 0 empty empty empty 0 -6 0 8 -262144 -1 -1 0 1;
#X obj 372 -720 tgl 15 0 empty empty empty 0 -6 0 8 -262144 -1 -1 1 1;
#X obj 420 -721 tgl 15 0 empty empty empty 0 -6 0 8 -262144 -1 -1 0 1;
#X obj 468 -718 tgl 15 0 empty empty empty 0 -6 0 8 -262144 -1 -1 1 1;
#X obj 682 -528 r \$0-mute;
#X obj 712 -785 s \$0-todplay1;
#X obj 980 243 r \$0-todplay1;
#X obj 652 -56 r \$0-bignewseed;
#X obj 315 -64 r \$0-bignewseed;
#X obj 969 -17 r \$0-bigseed;
#X text 278 -375 bassdrum;
#X text 700 -365 snare;
#X text 961 -333 high hat;
#N canvas 250 49 727 670 hh 0;
#X obj -788 273 table 12;
#A setproperties 1 0 100 2 2184 1 200 100;
#A 0 94 94 94 94 93 92.5 92 90 88.5 87 85.5 90;
#X obj -795 498 list prepend;
#X obj -795 441 t l b;
#X obj -788 236 uzi 12;
#X obj -788 210 bng 15 250 50 0 empty empty empty 0 -6 0 8 -262144 -1 -1;
#X obj -795 412 list-group 12;
#X text -760 194 push here to store the 12 numbers in the table into the collection.;
#X text -652 471 change this to the desired index for the collection storage.;
#X obj -795 531 outlet to collection;
#X obj -533 376 counter 9;
#X obj -706 465 int;
#X obj -533 402 - 1;
#X floatatom -532 427 5 0 0 0 - - -;
#X connect 0 0 5 0;
#X connect 1 0 8 0;
#X connect 2 0 1 0;
#X connect 2 1 10 0;
#X connect 3 0 0 0;
#X connect 4 0 3 0;
#X connect 4 0 9 0;
#X connect 5 0 2 0;
#X connect 9 0 11 0;
#X connect 10 0 1 1;
#X connect 11 0 10 1;
#X connect 11 0 12 0;
#X restore 873 -73 pd hh building;
#X obj 327 -311 r \$0-bignewseed;
#X obj 685 -339 r \$0-bignewseed;
#X obj 981 -266 r \$0-bignewseed;
#X msg 225 404 startselect \$1;
#X msg 980 290 gain \$1;
#X obj 536 308 r \$0-todplay1;
#X msg 642 420 gain \$1;
#X obj 57 434 r \$0-todplay1;
#X msg 57 481 gain \$1;
#X obj 208 469 s bassdrumhit;
#X obj 448 624 s snaredrumhit;
#X obj 798 354 s hhdrumhit;
#X obj 545 -8 chanceplayer 10;
#X obj 201 -19 chanceplayer 10;
#X obj 855 29 chanceplayer 10;
#X msg 86 60 1;
#X obj 544 220 del 0;
#X obj 522 246 bng 15 250 50 0 empty empty empty 0 -6 0 8 -262144 -1 -1;
#X obj 893 207 del 0;
#X obj 852 235 bng 15 250 50 0 empty empty empty 0 -6 0 8 -262144 -1 -1;
#X obj 611 130 f;
#X obj 557 192 +;
#X obj 557 162 random 10;
#X obj 557 131 t b b;
#X obj 984 122 f;
#X obj 930 181 +;
#X obj 930 154 random 10;
#X obj 930 128 t b b;
#X obj 1003 98 r \$0-toswingmin;
#X obj 630 106 r \$0-toswingmin;
#X obj 787 -462 unpack f f;
#X obj 787 -428 s \$0-toswingmin;
#X obj 919 -425 s \$0-toswingmax;
#X obj 1018 122 r \$0-toswingmax;
#X obj 652 132 r \$0-toswingmax;
#X msg 58 368 pitch \$1;
#N canvas 5 328 680 312 evenodd 0;
#X obj 116 -83 % 2;
#X floatatom 116 -123 5 0 0 0 - - -;
#X obj 116 -49 sel 0 1;
#X obj 116 -14 bng 15 250 50 0 empty empty empty 0 -6 0 8 -262144 -1 -1;
#X obj 144 -15 bng 15 250 50 0 empty empty empty 0 -6 0 8 -262144 -1 -1;
#X obj 114 -173 inlet;
#X obj 130 32 outlet even;
#X obj 231 34 outlet odd;
#X connect 0 0 2 0;
#X connect 1 0 0 0;
#X connect 2 0 3 0;
#X connect 2 1 4 0;
#X connect 3 0 6 0;
#X connect 4 0 7 0;
#X connect 5 0 1 0;
#X restore 447 -110 pd evenodd;
#X obj 522 61 gate 2;
#X obj 447 -148 + 1;
#N canvas 5 328 672 304 evenodd 0;
#X obj 116 -83 % 2;
#X floatatom 116 -123 5 0 0 0 - - -;
#X obj 116 -49 sel 0 1;
#X obj 116 -14 bng 15 250 50 0 empty empty empty 0 -6 0 8 -262144 -1 -1;
#X obj 144 -15 bng 15 250 50 0 empty empty empty 0 -6 0 8 -262144 -1 -1;
#X obj 114 -173 inlet;
#X obj 130 32 outlet even;
#X obj 231 34 outlet odd;
#X connect 0 0 2 0;
#X connect 1 0 0 0;
#X connect 2 0 3 0;
#X connect 2 1 4 0;
#X connect 3 0 6 0;
#X connect 4 0 7 0;
#X connect 5 0 1 0;
#X restore 747 -155 pd evenodd;
#X obj 747 -193 + 1;
#X obj 814 83 gate 2;
#N canvas 5 328 672 304 evenodd 0;
#X obj 116 -83 % 2;
#X floatatom 116 -123 5 0 0 0 - - -;
#X obj 116 -49 sel 0 1;
#X obj 116 -14 bng 15 250 50 0 empty empty empty 0 -6 0 8 -262144 -1 -1;
#X obj 144 -15 bng 15 250 50 0 empty empty empty 0 -6 0 8 -262144 -1 -1;
#X obj 114 -173 inlet;
#X obj 130 32 outlet even;
#X obj 231 34 outlet odd;
#X connect 0 0 2 0;
#X connect 1 0 0 0;
#X connect 2 0 3 0;
#X connect 2 1 4 0;
#X connect 3 0 6 0;
#X connect 4 0 7 0;
#X connect 5 0 1 0;
#X restore 88 -58 pd evenodd;
#X obj 88 -96 + 1;
#X obj 202 47 gate 2;
#X obj 281 89 bng 15 250 50 0 empty empty empty 0 -6 0 8 -262144 -1 -1;
#X obj 268 204 del 0;
#X obj 335 114 f;
#X obj 281 176 +;
#X obj 281 146 random 10;
#X obj 281 115 t b b;
#X obj 354 90 r \$0-toswingmin;
#X obj 376 116 r \$0-toswingmax;
#X obj 210 205 t b b;
#X floatatom 350 -233 5 0 0 0 - - -;
#X floatatom 687 -228 5 0 0 0 - - -;
#X floatatom 998 -187 5 0 0 0 - - -;
#X obj 1135 196 int 0;
#X obj 1170 148 bng 15 250 50 0 empty empty empty 0 -6 0 8 -262144 -1 -1;
#X obj 1170 120 r \$0-bignewseed;
#X floatatom 1187 199 5 0 0 0 - - -;
#X msg 1135 223 seed \$1;
#X obj 625 236 int 0;
#X obj 660 188 bng 15 250 50 0 empty empty empty 0 -6 0 8 -262144 -1 -1;
#X obj 660 160 r \$0-bignewseed;
#X msg 625 263 seed \$1;
#X obj 1170 168 random 123134;
#X obj 660 208 random 123123;
#X obj 243 317 int 0;
#X obj 278 269 bng 15 250 50 0 empty empty empty 0 -6 0 8 -262144 -1 -1;
#X obj 278 241 r \$0-bignewseed;
#X msg 243 344 seed \$1;
#X obj 278 289 random 123123;
#X obj 855 -325 % 8;
#X obj 280 16 counter 2;
#X obj 281 41 sel 1;
#X obj 611 33 counter 2;
#X obj 612 58 sel 1;
#X obj 440 -29 bng 15 250 50 0 empty empty empty 0 -6 0 8 -262144 -1 -1;
#X obj 952 207 r toshaker;
#X obj 80 228 loadbang;
#X floatatom 806 282 5 0 0 0 - - -;
#X obj 629 -357 + 10;
#X obj 634 -415 bng 15 250 50 0 empty empty empty 0 -6 0 8 -262144 -1 -1;
#X floatatom 614 -307 5 0 0 0 - - -;
#X msg 555 -479 1;
#X msg 686 -684 0;
#X obj 671 -258 f 0;
#X obj 372 -810 route bass snare hh newseed mute swing solo;
#X msg 247 -859 solo 1;
#X msg 309 -859 solo 0;
#X obj 629 -386 rand-norepeat 5;
#N canvas 170 7 1514 808 drumGroups 0;
#X obj -404 -1068 group snare_perc1 KpanlogoHi25 KpanlogoHi26 KpanlogoHi27 KpanlogoHi28 KpanlogoHi25 KpanlogoHi26 KpanlogoHi27 KpanlogoHi28 KpanlogoHi29 KpanlogoHi30 KpanlogoHi32 KpanlogoHi33 KpanlogoHi34 KpanlogoHi35 KpanlogoHi36 KpanlogoHi37 KpanlogoHi40 KpanlogoHi41 KpanlogoHi42 KpanlogoHi46 KpanlogoHi48 KpanlogoHi49;
#X obj -350 -575 group glitch_perc1 Agogo1 Agogo2 Agogo3 Agogo4 Agogo5 Agogo6 Agogo7 Agogo8 Agogo9 Agogo10 Agogo11 Agogo12 Agogo13 Agogo14;
#X obj -402 -954 group hh_perc1 KpanlogoHi8 KpanlogoHi5 KpanlogoHi6 KpanlogoHi1 KpanlogoHi30 KpanlogoHi12 KpanlogoHi14 KpanlogoHi16 KpanlogoHi17 KpanlogoHi18 KpanlogoHi20 KpanlogoHi21 KpanlogoHi22 KpanlogoHi23 KpanlogoHi24 KpanlogoHi15 KpanlogoHi24 KpanlogoHi31 KpanlogoHi38 KpanlogoHi39 KpanlogoHi44 KpanlogoHi50;
#X obj -405 -1147 group bd_perc1 SurduBombowood1 SurduBombowood2 SurduBombowood3 SurduBombowood4 SurduBombowood6 SurduBombofelt1 SurduBombofelt2;
#X obj 75 -1107 group Kloboto Kloboto1 Kloboto2 Kloboto3 Kloboto4 Kloboto5 Kloboto6 Kloboto7 Kloboto8 Kloboto9 Kloboto10 Kloboto11 Kloboto12 Kloboto13 Kloboto14 Kloboto15 Kloboto16 Kloboto17 Kloboto18 Kloboto19 Kloboto20 Kloboto21 Kloboto22 Kloboto23 Kloboto24 Kloboto25 Kloboto26 Kloboto27 Kloboto28 Kloboto29 Kloboto30 Kloboto31 Kloboto32 Kloboto33 Kloboto34 Klobotov35 Kloboto36 Kloboto37 Kloboto38 Kloboto39 Kloboto49 Kloboto41 Kloboto42 Kloboto43 Kloboto44 Kloboto45 Kloboto46 Kloboto47 Kloboto48;
#X obj -341 -385 group glitch glitch1 glitch2 glitch3 glitch4 glitch5 glitch6 glitch7 glitch8 glitch9 glitch10 glitch11 glitch12 glitch13 glitch14 glitch15 glitch16 glitch17 glitch18 glitch19 glitch20 glitch21 glitch22 glitch23 glitch24 glitch25 glitch26 glitch27 glitch28 glitch29 glitch30 glitch31 glitch32 glitch33 glitch34;
#X obj -339 -475 group snare snare-1 snare-2 snare-3 snare-4 snare-5 snare-6 snare-7 snare-8;
#X obj -339 -434 group bd bd-1 bd-2 bd-3 bd-4 bd-5 bd-6 bd-7 bd-8 bd-9 bd-10;
#X obj -339 -516 group hh hh-1 hh-2 hh-3 hh-4 hh-5 hh-6 hh-7 hh-8 hh-9 hh-10 hh-11 hh-12 hh-13 hh-14 hh-15 hh-16;
#X obj -340 -410 group crash crash-1 crash-2;
#X obj 315 -744 group apentemaBD apentemaBD1 apentemaBD2 apentemaBD3 apentemaBD4 apentemaBD5 apentemaBD6 apentemaBD7 apentemaBD8 apentemaBD9 apentemaBD10;
#X obj 315 -688 group apentemaSD apentemaSD1 apentemaSD2 apentemaSD3 apentemaSD4 apentemaSD5 apentemaSD6 apentemaSD7 apentemaSD8 apentemaSD9 apentemaSD10;
#X obj 315 -632 group apentemaHH apentemaHH1 apentemaHH2 apentemaHH3 apentemaHH4 apentemaHH5 apentemaHH6 apentemaHH7 apentemaHH8 apentemaHH9 apentemaHH10;
#X obj 328 -569 group apentema2BD apentema2BD1 apentema2BD2 apentema2BD3 apentema2BD4 apentema2BD5 apentema2BD6 apentema2BD7 apentema2BD8 apentema2BD9 apentema2BD10;
#X obj 330 -513 group apentema2SD apentema2SD1 apentema2SD2 apentema2SD3 apentema2SD4 apentema2SD5 apentema2SD6 apentema2SD7 apentema2SD8 apentema2SD9 apentema2SD10;
#X obj 328 -457 group apentema2HH apentema2HH1 apentema2HH2 apentema2HH3 apentema2HH4 apentema2HH5 apentema2HH6 apentema2HH7 apentema2HH8 apentema2HH9 apentema2HH10;
#X text 298 -771 Processed;
#X text -120 -615 Old Editor Drums;
#X obj 325 -336 group djembeSD djembeSD1 djembeSD2 djembeSD3 djembeSD4 djembeSD5 djembeSD6 djembeSD7 djembeSD8 djembeSD9 djembeSD10;
#X obj 334 -286 group djembeHH djembeHH1 djembeHH2 djembeHH3 djembeHH4 djembeHH5 djembeHH6 djembeHH7 djembeHH1 djembeHH2 djembeHH3;
#X obj 341 -240 group djembe2BD djembe2BD1 djembe2BD2 djembe2BD3 djembe2BD4 djembe2BD5 djembe2BD6 djembe2BD7 djembe2BD8 djembe2BD9 djembe2BD10;
#X obj 324 -378 group djembeBD djembeBD1 djembeBD2 djembeBD3 djembeBD4 djembeBD5 djembeBD6 djembeBD7 djembeBD8 djembeBD9 djembeBD10;
#X obj 335 -180 group djembe2SD djembe2SD1 djembe2SD2 djembe2SD3 djembe2SD4 djembe2SD5 djembe2SD6 djembe2SD7 djembe2SD8 djembe2SD9 djembe2SD10;
#X obj 334 -123 group djembe2HH djembe2HH1 djembe2HH2 djembe2HH3 djembe2HH4 djembe2HH5 djembe2HH6 djembe2HH7 djembe2HH1 djembe2HH2 djembe2HH3;
#X obj 331 -37 group shaker shaker1 shaker2 shaker3 shaker4 shaker5 shaker6 shaker7 shaker8 shaker shaker10 shaker11 shaker13 shaker14 shaker15 shaker16 shaker17 shaker18 shaker19 shaker20 shaker21 shaker22 shaker23 shaker24 shaker25;
#X msg 77 71 start;
#X obj -328 -221 group civ_snare civ_snare1 civ_snare1 civ_snare2 civ_rimshot1 civ_snare2 civ_rimshot2 civ_rimshot3 civ_shaker1 civ_shaker2 civ_shaker3 civ_snare1 civ_snare2;
#X obj -326 -54 group spatial_HH spatial_HH1 spatial_HH2 spatial_HH3 spatial_HH4 spatial_RS1 spatial_RS2;
#X obj 68 108 dplay spatial_SD3;
#X obj -358 26 group spatial_SDall spatial_SD1 spatial_SD2 spatial_CLAP1;
#X obj -307 -94 group spatial_SD spatial_SD3 spatial_SD3 spatial_SD3;
#X obj -332 -252 group civ_bass civ_bassdrum1 civ_bassdrum2;
#X obj -324 -143 group spatial_BD spatial_BD2 spatial_BD2;
#X connect 25 0 28 0;
#X restore 90 -745 pd drumGroups;
#X obj 487 284 t b b;
#X obj 642 296 r BlockPaintApply;
#X obj 642 375 f 1;
#X msg 734 382 1;
#X obj 1248 223 t b b;
#X obj 1310 257 int 0;
#X obj 1345 209 bng 15 250 50 0 empty empty empty 0 -6 0 8 -262144 -1 -1;
#X obj 1345 181 r \$0-bignewseed;
#X obj 1345 229 random 123134;
#X msg 1310 288 seed \$1;
#X msg 447 -72 2;
#X msg 504 -70 1;
#X msg 747 -117 2;
#X msg 804 -115 1;
#X msg 88 -20 2;
#X msg 145 -18 1;
#X obj 641 355 bng 15 250 50 0 empty empty empty 0 -6 0 8 -262144 -1 -1;
#X obj 689 229 r mode;
#X obj 689 254 bng 15 250 50 0 empty empty empty 0 -6 0 8 -262144 -1 -1;
#X obj 642 332 del 1500;
#X obj 689 272 del 4000;
#X msg 717 332 8;
#X obj 767 253 r Theme;
#X obj 731 412 r RigBlockAdded;
#X obj 761 448 r PalleteSetTest;
#X msg 783 328 3;
#X obj 201 -372 % 4;
#X msg 220 -401 8;
#X msg 279 -403 4;
#X obj 175 -567 t f f;
#X obj 220 -428 bng 15 250 50 0 empty empty empty 0 -6 0 8 -262144 -1 -1;
#X obj 279 -427 bng 15 250 50 0 empty empty empty 0 -6 0 8 -262144 -1 -1;
#X obj 210 -541 sel 1;
#X obj 1284 -256 s \$0-bignewseed;
#X obj 455 -689 s \$0-newseedstructure;
#X obj 1347 -677 r \$0-newseedstructure;
#X obj 1219 -391 random 600000;
#X obj 1334 -392 random 600000;
#X obj 1200 -354 i;
#X obj 1315 -350 i;
#X obj 1191 -726 r \$0-b1;
#X obj 1191 -701 sel 1;
#X obj 1191 -674 bng 15 250 50 0 empty empty empty 0 -6 0 8 -262144 -1 -1;
#X floatatom 1191 -569 5 0 0 0 - - -;
#X obj 1191 -512 gate 3;
#X obj 1191 -543 t b f;
#X obj 210 -496 randweighted 3;
#A setproperties 1 0 1 1 0 0 200 100;
#A 0 0.876254 0.615385 0.307692;
#X obj 210 -516 bng 15 250 50 0 empty empty empty 0 -6 0 8 -262144 -1 -1;
#X obj 210 -469 sel 0 1 2;
#X msg 317 -398 2;
#X obj 320 -421 bng 15 250 50 0 empty empty empty 0 -6 0 8 -262144 -1 -1;
#X obj 308 -455 del 1000;
#X obj 351 328 bng 15 250 50 0 empty empty empty 0 -6 0 8 -262144 -1 -1;
#X msg 58 333 1;
#X obj 223 434 dplay spatial_BD 5;
#X obj 522 527 dplay spatial_SD setnext 5;
#X obj 225 379 random 2;
#X obj 852 254 random 6;
#X obj 57 459 * 1;
#X obj 1191 -653 counter 4;
#X obj 1191 -625 sel 1;
#X obj 1347 -651 t b b b;
#X obj 980 266 * 0.8;
#X obj 1191 -599 counter 2;
#X obj 523 -307 % 16;
#X obj 523 -362 % 32;
#X obj 522 371 random 3;
#X obj 677 -717 bng 15 250 50 0 empty empty empty 0 -6 0 8 -262144 -1 -1;
#X obj 767 -640 del 2000;
#X msg 784 -612 1;
#X obj 762 -610 bng 15 250 50 0 empty empty empty 0 -6 0 8 -262144 -1 -1;
#X obj 852 318 dplay spatial_HH setnext 4;
#X obj 1204 293 loadbang;
#X obj 854 -642 del 2000;
#X obj 800 -706 bng 15 250 50 0 empty empty empty 0 -6 0 8 -262144 -1 -1;
#X obj 843 -602 bng 15 250 50 0 empty empty empty 0 -6 0 8 -262144 -1 -1;
#X msg 867 -604 0;
#X obj 384 -403 + 10;
#X obj 384 -453 bng 15 250 50 0 empty empty empty 0 -6 0 8 -262144 -1 -1;
#X floatatom 384 -375 5 0 0 0 - - -;
#X obj 384 -432 rand-norepeat 5;
#X text 846 -795 solo 1 is buildmode solo;
#X text 845 -779 solo 2 is paintmode solo;
#X text 851 -762 solo 3 is bassdrum solo;
#X obj 372 -551 bng 15 250 50 0 empty empty empty 0 -6 0 8 -262144 -1 -1;
#X msg 344 -526 1;
#X obj 678 -744 sel 1 2 3 4 5;
#X text 854 -744 solo 4 is soloriff solo on (on turnarounds);
#X text 850 -722 solo 5 is soloriff solo off (on turnarounds);
#X obj 642 397 * 1;
#X msg 1204 320 pitch 2;
#X obj 863 516 loadbang;
#X msg 863 542 pitch 1;
#X connect 0 0 225 0;
#X connect 1 0 93 0;
#X connect 1 0 100 0;
#X connect 2 0 130 0;
#X connect 3 0 241 0;
#X connect 4 0 95 0;
#X connect 4 0 104 0;
#X connect 4 0 88 0;
#X connect 5 0 56 0;
#X connect 6 0 90 0;
#X connect 7 0 6 0;
#X connect 8 0 18 0;
#X connect 9 0 90 2;
#X connect 10 0 15 0;
#X connect 10 0 120 0;
#X connect 11 0 121 0;
#X connect 12 0 17 0;
#X connect 13 0 12 1;
#X connect 14 0 12 0;
#X connect 15 0 14 0;
#X connect 15 1 16 0;
#X connect 16 0 13 0;
#X connect 17 0 6 0;
#X connect 18 0 90 1;
#X connect 18 0 151 0;
#X connect 19 0 10 0;
#X connect 19 1 8 0;
#X connect 20 0 58 0;
#X connect 21 0 89 0;
#X connect 22 0 32 0;
#X connect 23 0 89 2;
#X connect 24 0 29 0;
#X connect 24 0 115 0;
#X connect 25 0 114 0;
#X connect 26 0 31 0;
#X connect 27 0 26 1;
#X connect 28 0 26 0;
#X connect 29 0 28 0;
#X connect 29 1 30 0;
#X connect 30 0 27 0;
#X connect 31 0 21 0;
#X connect 32 0 89 1;
#X connect 32 0 153 0;
#X connect 33 0 234 0;
#X connect 33 1 22 0;
#X connect 34 0 16 1;
#X connect 34 0 131 0;
#X connect 35 0 34 0;
#X connect 36 0 132 0;
#X connect 36 0 164 0;
#X connect 37 0 36 0;
#X connect 38 0 21 0;
#X connect 39 0 60 0;
#X connect 40 0 91 0;
#X connect 41 0 51 0;
#X connect 42 0 91 2;
#X connect 43 0 48 0;
#X connect 43 0 117 0;
#X connect 44 0 118 0;
#X connect 45 0 50 0;
#X connect 46 0 45 1;
#X connect 47 0 45 0;
#X connect 48 0 47 0;
#X connect 48 1 49 0;
#X connect 49 0 46 0;
#X connect 50 0 40 0;
#X connect 51 0 91 1;
#X connect 51 0 134 0;
#X connect 51 0 175 0;
#X connect 52 0 43 0;
#X connect 52 1 41 0;
#X connect 53 0 49 1;
#X connect 53 0 133 0;
#X connect 54 0 53 0;
#X connect 55 0 204 0;
#X connect 56 0 199 0;
#X connect 57 0 56 1;
#X connect 58 0 235 0;
#X connect 59 0 58 1;
#X connect 60 0 150 0;
#X connect 61 0 60 1;
#X connect 62 0 165 0;
#X connect 63 0 59 0;
#X connect 63 0 61 0;
#X connect 63 0 57 0;
#X connect 64 0 57 0;
#X connect 65 0 59 0;
#X connect 66 0 61 0;
#X connect 67 0 63 0;
#X connect 69 0 232 0;
#X connect 70 0 23 0;
#X connect 71 0 9 0;
#X connect 72 0 42 0;
#X connect 76 0 40 0;
#X connect 77 0 35 0;
#X connect 78 0 37 0;
#X connect 79 0 54 0;
#X connect 80 0 224 0;
#X connect 81 0 241 0;
#X connect 82 0 186 0;
#X connect 83 0 225 0;
#X connect 84 0 228 0;
#X connect 85 0 224 0;
#X connect 89 0 25 0;
#X connect 90 0 11 0;
#X connect 91 0 44 0;
#X connect 92 0 228 0;
#X connect 92 0 232 0;
#X connect 92 0 259 0;
#X connect 93 0 94 0;
#X connect 94 0 170 0;
#X connect 95 0 96 0;
#X connect 96 0 174 0;
#X connect 96 0 227 0;
#X connect 97 0 98 1;
#X connect 98 0 93 1;
#X connect 99 0 98 0;
#X connect 100 0 99 0;
#X connect 100 1 97 0;
#X connect 101 0 102 1;
#X connect 102 0 95 1;
#X connect 103 0 102 0;
#X connect 104 0 103 0;
#X connect 104 1 101 0;
#X connect 105 0 101 1;
#X connect 106 0 97 1;
#X connect 107 0 108 0;
#X connect 107 1 109 0;
#X connect 110 0 103 1;
#X connect 111 0 99 1;
#X connect 112 0 224 0;
#X connect 113 0 180 0;
#X connect 113 1 181 0;
#X connect 114 0 94 0;
#X connect 114 1 1 0;
#X connect 115 0 113 0;
#X connect 116 0 182 0;
#X connect 116 1 183 0;
#X connect 117 0 116 0;
#X connect 118 0 96 0;
#X connect 118 1 4 0;
#X connect 119 0 184 0;
#X connect 119 1 185 0;
#X connect 120 0 119 0;
#X connect 121 0 2 0;
#X connect 121 1 122 0;
#X connect 122 0 123 0;
#X connect 122 0 127 0;
#X connect 123 0 2 0;
#X connect 124 0 125 1;
#X connect 125 0 123 1;
#X connect 126 0 125 0;
#X connect 127 0 126 0;
#X connect 127 1 124 0;
#X connect 128 0 124 1;
#X connect 129 0 126 1;
#X connect 130 0 86 0;
#X connect 130 0 226 0;
#X connect 134 0 138 0;
#X connect 135 0 143 0;
#X connect 136 0 135 0;
#X connect 138 0 227 0;
#X connect 139 0 142 0;
#X connect 140 0 144 0;
#X connect 141 0 140 0;
#X connect 142 0 236 0;
#X connect 143 0 134 1;
#X connect 143 0 137 0;
#X connect 144 0 139 1;
#X connect 145 0 148 0;
#X connect 146 0 149 0;
#X connect 147 0 146 0;
#X connect 148 0 226 0;
#X connect 149 0 145 1;
#X connect 150 0 52 0;
#X connect 151 0 152 0;
#X connect 152 0 145 0;
#X connect 153 0 154 0;
#X connect 154 0 139 0;
#X connect 155 0 153 2;
#X connect 155 0 151 2;
#X connect 156 0 3 0;
#X connect 157 0 223 0;
#X connect 159 0 161 0;
#X connect 160 0 168 0;
#X connect 161 0 30 0;
#X connect 162 0 59 0;
#X connect 163 0 61 0;
#X connect 163 0 57 0;
#X connect 164 0 30 1;
#X connect 165 0 64 0;
#X connect 165 1 65 0;
#X connect 165 2 66 0;
#X connect 165 3 55 0;
#X connect 165 4 63 0;
#X connect 165 5 107 0;
#X connect 165 6 256 0;
#X connect 165 7 68 0;
#X connect 166 0 165 0;
#X connect 167 0 165 0;
#X connect 168 0 159 0;
#X connect 170 0 87 0;
#X connect 170 1 236 0;
#X connect 171 0 191 0;
#X connect 171 0 189 0;
#X connect 172 0 259 0;
#X connect 173 0 172 0;
#X connect 175 0 179 0;
#X connect 176 0 178 0;
#X connect 177 0 176 0;
#X connect 178 0 175 1;
#X connect 180 0 114 1;
#X connect 181 0 114 1;
#X connect 182 0 118 1;
#X connect 183 0 118 1;
#X connect 184 0 121 1;
#X connect 185 0 121 1;
#X connect 186 0 172 0;
#X connect 187 0 188 0;
#X connect 188 0 191 0;
#X connect 188 0 190 0;
#X connect 189 0 186 0;
#X connect 190 0 186 0;
#X connect 191 0 259 0;
#X connect 192 0 189 0;
#X connect 192 0 195 0;
#X connect 193 0 191 0;
#X connect 193 0 189 0;
#X connect 194 0 189 0;
#X connect 194 0 195 0;
#X connect 195 0 259 0;
#X connect 196 0 19 0;
#X connect 197 0 196 1;
#X connect 198 0 196 1;
#X connect 199 0 196 0;
#X connect 199 1 202 0;
#X connect 200 0 197 0;
#X connect 201 0 198 0;
#X connect 202 0 217 0;
#X connect 205 0 231 0;
#X connect 206 0 208 1;
#X connect 207 0 209 1;
#X connect 208 0 203 0;
#X connect 209 0 203 0;
#X connect 210 0 211 0;
#X connect 211 0 212 0;
#X connect 212 0 229 0;
#X connect 213 0 215 0;
#X connect 214 0 208 0;
#X connect 214 1 209 0;
#X connect 215 0 214 0;
#X connect 215 1 214 1;
#X connect 216 0 218 0;
#X connect 217 0 216 0;
#X connect 218 0 200 0;
#X connect 218 1 201 0;
#X connect 218 2 220 0;
#X connect 219 0 196 1;
#X connect 220 0 219 0;
#X connect 220 0 221 0;
#X connect 221 0 201 0;
#X connect 222 0 226 0;
#X connect 223 0 112 0;
#X connect 226 0 80 0;
#X connect 227 0 3 0;
#X connect 227 0 158 0;
#X connect 228 0 85 0;
#X connect 229 0 230 0;
#X connect 230 0 233 0;
#X connect 231 0 208 0;
#X connect 231 1 207 0;
#X connect 231 1 206 0;
#X connect 231 2 229 2;
#X connect 231 2 233 2;
#X connect 232 0 81 0;
#X connect 233 0 213 0;
#X connect 234 0 24 0;
#X connect 235 0 33 0;
#X connect 236 0 0 0;
#X connect 237 0 163 0;
#X connect 237 0 160 0;
#X connect 237 0 238 0;
#X connect 237 0 162 0;
#X connect 238 0 239 0;
#X connect 238 0 240 0;
#X connect 239 0 57 0;
#X connect 239 0 61 0;
#X connect 240 0 37 0;
#X connect 242 0 260 0;
#X connect 243 0 246 0;
#X connect 244 0 243 0;
#X connect 244 0 160 0;
#X connect 246 0 59 0;
#X connect 247 0 249 0;
#X connect 248 0 250 0;
#X connect 249 0 16 0;
#X connect 250 0 247 0;
#X connect 254 0 248 0;
#X connect 254 0 255 0;
#X connect 255 0 57 0;
#X connect 256 0 237 0;
#X connect 256 1 244 0;
#X connect 256 2 254 0;
#X connect 256 3 160 0;
#X connect 256 4 37 0;
#X connect 259 0 83 0;
#X connect 260 0 241 0;
#X connect 261 0 262 0;
#X connect 262 0 225 0;
#X restore 116 256 pd civaccessdrums;
#X msg 116 -59 solo 3;
#X obj -32 67 tempopen 2000;
#X floatatom -32 93 5 0 0 0 - - -;
#X obj 17 -100 tempopen 2000;
#X obj 536 -237 r soloriff;
#X obj 536 -179 bng 15 250 50 0 empty empty empty 0 -6 0 8 -262144 -1 -1;
#X obj 715 -139 r mode;
#X obj 715 -112 != 1;
#X obj 536 -31 gate;
#X msg 536 -153 solo 4;
#X msg 545 -58 solo 5;
#X obj 625 -71 r soloriffoff;
#X obj 536 -213 t b b b;
#X obj 597 -184 random 2000;
#X obj 561 -114 del;
#X obj 393 -87 loadbang;
#X obj 393 -59 del 5000;
#X msg 393 -32 1;
#X obj 463 -59 del 7000;
#X msg 463 -31 1;
#X obj -220 -463 loadbang;
#X connect 1 0 2 0;
#X connect 1 0 50 0;
#X connect 4 0 3 0;
#X connect 5 0 1 0;
#X connect 7 0 79 0;
#X connect 8 0 79 0;
#X connect 9 0 16 0;
#X connect 10 0 7 0;
#X connect 11 0 8 0;
#X connect 14 0 79 0;
#X connect 15 0 14 0;
#X connect 16 0 79 0;
#X connect 17 0 79 0;
#X connect 18 0 3 0;
#X connect 19 0 79 0;
#X connect 20 0 19 0;
#X connect 21 0 79 0;
#X connect 22 0 21 0;
#X connect 23 0 22 0;
#X connect 24 0 15 0;
#X connect 25 0 15 0;
#X connect 26 0 47 0;
#X connect 27 0 34 0;
#X connect 28 0 27 0;
#X connect 29 0 26 0;
#X connect 30 0 26 0;
#X connect 31 0 26 0;
#X connect 32 0 33 0;
#X connect 33 0 36 0;
#X connect 35 0 45 0;
#X connect 37 0 3 0;
#X connect 43 0 42 0;
#X connect 43 0 52 0;
#X connect 44 0 43 0;
#X connect 45 0 46 0;
#X connect 46 0 15 0;
#X connect 48 0 51 0;
#X connect 50 0 49 0;
#X connect 51 0 79 0;
#X connect 53 0 54 0;
#X connect 54 0 55 0;
#X connect 54 0 56 0;
#X connect 55 0 9 0;
#X connect 56 0 65 0;
#X connect 59 0 60 0;
#X connect 60 0 20 0;
#X connect 60 0 10 0;
#X connect 61 0 62 0;
#X connect 62 0 71 0;
#X connect 63 0 64 0;
#X connect 64 0 65 1;
#X connect 65 0 51 0;
#X connect 65 1 66 0;
#X connect 66 0 11 0;
#X connect 67 0 69 0;
#X connect 68 0 67 0;
#X connect 69 0 15 0;
#X connect 70 0 69 1;
#X connect 71 0 1 0;
#X connect 72 0 73 0;
#X connect 73 0 68 0;
#X connect 74 0 75 0;
#X connect 75 0 80 0;
#X connect 75 0 78 0;
#X connect 75 0 83 0;
#X connect 76 0 77 0;
#X connect 77 0 78 0;
#X connect 77 0 81 0;
#X connect 78 0 79 0;
#X connect 80 0 79 0;
#X connect 81 0 82 0;
#X connect 82 0 10 0;
#X connect 83 0 20 0;
#X connect 84 0 92 0;
#X connect 85 0 89 0;
#X connect 86 0 87 0;
#X connect 87 0 88 1;
#X connect 88 0 79 0;
#X connect 89 0 88 0;
#X connect 90 0 88 0;
#X connect 91 0 90 0;
#X connect 92 0 85 0;
#X connect 92 1 94 0;
#X connect 92 2 93 0;
#X connect 93 0 94 1;
#X connect 94 0 90 0;
#X connect 95 0 96 0;
#X connect 95 0 98 0;
#X connect 96 0 97 0;
#X connect 97 0 20 0;
#X connect 98 0 99 0;
#X connect 99 0 10 0;
#X connect 99 0 11 0;
#X connect 100 0 18 0;
